# xmcd
#
# Track frame offsets:
#       150
#       12395
#       24289
#       37502
#       51765
#       64480
#       76570
#       90898
#       101243
#       114282
#       131190
#       144242
#
# Disc length: 2088 seconds
#
# Revision: 0
# Processed by: cddbd v1.5.1PL0 Copyright (c) Steve Scherf et al.
# Submitted via: CD-DA_X-Tractor v0.24
#
DISCID=8808260c
DTITLE=Various Artist - Classic Blue Grass
DYEAR=1900
DGENRE=Blue Grass
TTITLE0=Foggy Mountain Breakdown - Lester Flatt and Earl Scruggs
TTITLE1=Orange Blossom Special - Bill Monroe and His Bluegrass Boys
TTITLE2=On Tanner's Farm - Gid Tanner and Riley Puckett
TTITLE3=Little Bessie - The Blue Sky Boys
TTITLE4=Steel Guitar Rag - Merle Travis and His Cowboy Band
TTITLE5=Intoxicated Rat - The Dixon Brothers
TTITLE6=Dog House Blues - Bill Monroe and His Blue Grass Boys
TTITLE7=The Cannon Ball - Delmore Brothers
TTITLE8=The Paris Waltz - Arthur Smith Trio
TTITLE9=New River Train - The Monroe Brothers
TTITLE10=Going to Georgia - Wade Mainer and Zeke Morris
TTITLE11=End of Memory Lane - Charlie Monroe and His Kentucky Pardner
EXTD=
EXTT0=
EXTT1=
EXTT2=
EXTT3=
EXTT4=
EXTT5=
EXTT6=
EXTT7=
EXTT8=
EXTT9=
EXTT10=
EXTT11=
PLAYORDER=
